<svg xmlns="http://www.w3.org/2000/svg" width="117" height="117" viewBox="0 0 117 117"><g transform="translate(-2 -2)"><path d="M7.5,116.5H82.167a24.889,24.889,0,0,0,24.889-24.889V16.944A12.444,12.444,0,0,0,94.611,4.5H32.389A12.444,12.444,0,0,0,19.944,16.944V97.833C19.944,108.144,17.81,116.5,7.5,116.5Z" transform="translate(9.444 0)" fill="none" stroke="#fff" stroke-linecap="round" stroke-linejoin="round" stroke-width="5"/><path d="M4.5,24.444A12.444,12.444,0,0,1,16.944,12H29.389V77.333c0,8.587-3.858,15.556-12.444,15.556S4.5,85.92,4.5,77.333Z" transform="translate(0 23.611)" fill="none" stroke="#fff" stroke-linecap="round" stroke-linejoin="round" stroke-width="5"/><path d="M28.944,16.722A6.222,6.222,0,1,1,22.722,10.5,6.222,6.222,0,0,1,28.944,16.722Z" transform="translate(37.778 18.889)" fill="none" stroke="#fff" stroke-linecap="round" stroke-width="5"/><path d="M16.5,21H53.833M16.5,39.667H35.167" transform="translate(37.778 51.944)" fill="none" stroke="#fff" stroke-linecap="round" stroke-width="5"/></g></svg>