<svg xmlns="http://www.w3.org/2000/svg" width="117.895" height="121.465" viewBox="0 0 117.895 121.465"><path d="M129.8,230.38a60.139,60.139,0,0,1-13.4,5.31,1.25,1.25,0,0,0-.327.032,44.942,44.942,0,0,1-31.608-4.1,196.044,196.044,0,0,0-25.653-11.4,144.688,144.688,0,0,0,22.674,1.791q2.837,0,5.668-.112a1.264,1.264,0,0,0-.049-2.527h-.051a142.026,142.026,0,0,1-28.306-1.722q-4.512-.732-8.489-1.21l2.237-8.343c3.675.654,7.417,1.183,11.154,1.576a8.11,8.11,0,0,0,7.879,6.355h5.632a1.264,1.264,0,0,0,0-2.528H71.527a5.561,5.561,0,0,1-5.518-5.088c-.012-.146-.018-.3-.018-.446V190.8c0-.021,0-.043,0-.064a5.551,5.551,0,0,1,5.534-5.465H88.686a1.264,1.264,0,1,0,0-2.528H71.527a8.1,8.1,0,0,0-7.921,6.571c-1.948-.236-3.906-.515-5.852-.836l8.217-30.645a1.264,1.264,0,1,0-2.442-.655l-8.577,31.988h0l-.676,2.523-6.559,24.461a98.109,98.109,0,0,0-11.218-.61c-.673-.011-1.363,0-2.052.024a1.269,1.269,0,0,0-.318.058c-3.818.219-6.745.856-8.714,1.9A1.264,1.264,0,1,0,26.6,219.76c2-1.062,5.328-1.63,9.9-1.689,14.128.239,33.24,8.719,46.787,15.792a49.573,49.573,0,0,0,15.355,5.078,136.834,136.834,0,0,1-16.862.693h-.659a122.7,122.7,0,0,1-35.178-4.1c-10.17-2.907-17.567-7.143-20.829-11.927a1.264,1.264,0,1,0-2.089,1.424c6.988,10.251,29.407,17.161,55.143,17.161.99,0,1.992-.01,2.991-.031h.58a126.666,126.666,0,0,0,34.979-3.938,63.124,63.124,0,0,0,14.32-5.643,1.264,1.264,0,1,0-1.244-2.2ZM63.463,207.113c-3.456-.374-6.913-.866-10.312-1.465l3.944-14.713c2.116.353,4.249.658,6.368.912Z" transform="translate(-22.812 -120.727)" fill="#fff"/><path d="M318.277,195.769c-1.389-2.135-4.471-3.409-9.423-3.9a85.552,85.552,0,0,0-17.6.652l-2.562-10.165-4.33-17.195h0l-9.646-38.3,14.522.493,3.95,3.818a1.264,1.264,0,0,0,1.757-1.818l-4.3-4.156a1.264,1.264,0,0,0-.835-.354l-16.687-.566a1.264,1.264,0,0,0-1.269,1.572l9.723,38.608c-2.2.376-4.422.7-6.637.97a7.96,7.96,0,0,0-.68-2.051,1.264,1.264,0,1,0-2.27,1.112,5.47,5.47,0,0,1,.56,2.363c0,.03,0,.061,0,.091v0c0-.013,0-.024,0-.024v17.162c0,.15-.006.3-.019.449a5.557,5.557,0,0,1-5.517,5.085h-4.28a1.264,1.264,0,1,0,0,2.528h4.28a8.107,8.107,0,0,0,7.88-6.357c3.867-.405,7.771-.964,11.635-1.664l2.2,8.718q-2.975.4-6.231.924c-2.377.386-4.8.715-7.19.979a1.264,1.264,0,0,0,.277,2.513c2.436-.269,4.9-.6,7.318-1,26.618-4.318,32.119-.832,33.247.867a2.553,2.553,0,0,1-.037,2.613,16.853,16.853,0,0,1-2.282,2.648,1.264,1.264,0,1,0,1.744,1.829,19.306,19.306,0,0,0,2.638-3.07l.015-.022A5.109,5.109,0,0,0,318.277,195.769Zm-43.2-12.54V167.964c2.375-.285,4.76-.634,7.118-1.041l3.714,14.747C282.31,182.317,278.679,182.84,275.077,183.229Z" transform="translate(-201.138 -96.843)" fill="#fff"/><path d="M193.057,45.823a1.265,1.265,0,0,0,1.548-.894l3.7-13.788,22.035-12.63,23.632,16.839,7.853,21.316-4.455-4.307a1.264,1.264,0,0,0-1.757,1.818l8.046,7.777V84a1.221,1.221,0,0,0,.015.153,5.161,5.161,0,0,0-2.547,1.509l-3.072-1.346,1.137-3.412a1.264,1.264,0,0,0-2.4-.8l-1.5,4.506a1.264,1.264,0,0,0,.692,1.558l3.931,1.722a5.118,5.118,0,0,0,1.4,4.971,4.3,4.3,0,0,0-.284.515l-3.819-.875.52-2.7a1.264,1.264,0,1,0-2.482-.479l-.751,3.9a1.263,1.263,0,0,0,.959,1.471l5.234,1.2a4.223,4.223,0,0,0,.2.771l-.6,3.076a1.264,1.264,0,0,0,.628,1.349l1.362.754a1.264,1.264,0,1,0,1.224-2.212l-.557-.308.059-.3a4.238,4.238,0,0,0,3.815,0l.059.3-.557.308a1.264,1.264,0,1,0,1.224,2.212l1.362-.754a1.264,1.264,0,0,0,.628-1.349l-.6-3.076a4.277,4.277,0,0,0,.2-.767l5.248-1.2a1.264,1.264,0,0,0,.959-1.471l-.751-3.9a1.264,1.264,0,1,0-2.482.478l.52,2.7-3.831.878a4.281,4.281,0,0,0-.286-.518,5.194,5.194,0,0,0,1.565-3.7,5.137,5.137,0,0,0-.163-1.265l3.943-1.727a1.264,1.264,0,0,0,.692-1.558l-1.5-4.506a1.264,1.264,0,0,0-2.4.8l1.137,3.412-3.082,1.35a5.161,5.161,0,0,0-2.537-1.509,1.285,1.285,0,0,0,.016-.157V61.42s0,0,0-.006a1.274,1.274,0,0,0-.024-.235c-.005-.028-.015-.053-.022-.08a1.2,1.2,0,0,0-.032-.116l-9.9-26.871a1.264,1.264,0,0,0-.452-.592L221.145,15.983a1.263,1.263,0,0,0-1.362-.067L196.59,29.21a1.263,1.263,0,0,0-.592.769l-3.833,14.3A1.263,1.263,0,0,0,193.057,45.823ZM257.549,89.16a2.654,2.654,0,0,1-1.5,2.379,1.264,1.264,0,0,0-.159,2.188,1.756,1.756,0,0,1,.647,2.126,1.257,1.257,0,0,0-.1.209,1.755,1.755,0,0,1-3.048,0,1.257,1.257,0,0,0-.1-.209,1.756,1.756,0,0,1,.647-2.126,1.264,1.264,0,0,0-.159-2.188,2.638,2.638,0,1,1,3.777-2.379Z" transform="translate(-149.321 -15.748)" fill="#fff"/><path d="M239,292.165a2.636,2.636,0,0,0-1.345-2.3,2.609,2.609,0,0,0-1.3-.346H224.066a1.264,1.264,0,1,0,0,2.528h12.283a.1.1,0,0,1,.058.019.118.118,0,0,1,.061.1V296.3a1.264,1.264,0,1,0,2.528,0Z" transform="translate(-172.247 -220.312)" fill="#fff"/><path d="M213.336,302.749a1.264,1.264,0,0,0-1.264,1.264v11.651a2.65,2.65,0,0,0,2.647,2.647h13.613a2.65,2.65,0,0,0,2.647-2.647v-4.7a1.264,1.264,0,1,0-2.528,0v4.7a.121.121,0,0,1-.119.119H214.719a.119.119,0,0,1-.119-.119V304.013A1.264,1.264,0,0,0,213.336,302.749Z" transform="translate(-164.229 -230.199)" fill="#fff"/></svg>