<svg xmlns="http://www.w3.org/2000/svg" width="126.481" height="119.134" viewBox="0 0 126.481 119.134"><g transform="translate(0.485 -0.5)"><path d="M64.85,62.238,61.2,33A17.12,17.12,0,0,0,44.2,18H31.626A17.12,17.12,0,0,0,14.643,33L10.985,62.238A11.413,11.413,0,0,0,22.318,75.067h31.2A11.413,11.413,0,0,0,64.85,62.238Z" transform="translate(24.835 42.067)" fill="none" stroke="#fff" stroke-linecap="round" stroke-linejoin="round" stroke-width="5"/><path d="M47.74,20.12A17.12,17.12,0,1,1,30.62,3,17.12,17.12,0,0,1,47.74,20.12Z" transform="translate(32.136 0)" fill="none" stroke="#fff" stroke-width="5"/><path d="M25.827,21.913A11.413,11.413,0,1,1,14.413,10.5,11.413,11.413,0,0,1,25.827,21.913Z" transform="translate(2.689 21.033)" fill="none" stroke="#fff" stroke-width="5"/><path d="M49.827,21.913A11.413,11.413,0,1,1,38.413,10.5,11.413,11.413,0,0,1,49.827,21.913Z" transform="translate(69.996 21.033)" fill="none" stroke="#fff" stroke-width="5"/><path d="M17.1,21H15.356A11.414,11.414,0,0,0,4.1,30.537L2.2,41.949A11.413,11.413,0,0,0,13.456,55.24H34.223M108.409,21h1.746a11.414,11.414,0,0,1,11.259,9.537l1.9,11.412A11.413,11.413,0,0,1,112.056,55.24H91.289" transform="translate(0 50.48)" fill="none" stroke="#fff" stroke-linecap="round" stroke-linejoin="round" stroke-width="5"/></g></svg>